<svg xmlns="http://www.w3.org/2000/svg" viewBox="0 0 6945 800" width="6945" height="800" role="img" aria-label="ERNALINK">
<g fill="#0B1323">
<path d="M172 750V50H640V96H223V372H596V417H223V704H655V750Z"/>
<path d="M1061 750V50H1312Q1444 50 1519.0 112.5Q1594 175 1594 286Q1594 369 1551.0 425.5Q1508 482 1429 505L1605 750H1547L1380 516Q1348 521 1312 521H1112V750ZM1112 476H1312Q1425 476 1483.5 426.0Q1542 376 1542 286Q1542 195 1483.5 145.5Q1425 96 1312 96H1112Z"/>
<path d="M2001 750V50H2044L2520 657V50H2571V750H2529L2052 143V750Z"/>
<path d="M2918 750 3240 50H3291L3613 750H3558L3469 553H3062L2973 750ZM3082 510H3449L3265 106Z"/>
<path d="M3960 750V50H4011V704H4414V750Z"/>
<path d="M4765 750V50H4816V750Z"/>
<path d="M5280 750V50H5323L5799 657V50H5850V750H5808L5331 143V750Z"/>
<path d="M6314 750V50H6365V499L6802 50H6864L6557 369L6885 750H6823L6522 406L6365 566V750Z"/>
</g>
<circle cx="1327" cy="286" r="78" fill="#C43D3D"/>
</svg>